<?xml version="1.0" encoding="utf-8"?>
<!-- Generator: Adobe Illustrator 19.2.0, SVG Export Plug-In . SVG Version: 6.00 Build 0)  -->
<svg version="1.1" id="Layer_1" xmlns="http://www.w3.org/2000/svg" xmlns:xlink="http://www.w3.org/1999/xlink" x="0px" y="0px"
	 viewBox="0 0 1920 1080" style="enable-background:new 0 0 1920 1080;" xml:space="preserve">
<style type="text/css">
	.st0{fill:#0A1975;}
	.st1{opacity:0.5;fill:#7990DB;enable-background:new    ;}
	.st2{opacity:0.5;fill:#FFFFFF;enable-background:new    ;}
	.st3{fill:#FFFFFF;}
	.st4{fill:#7990DB;}
	.st5{opacity:0.6;fill:url(#SVGID_1_);enable-background:new    ;}
	.st6{enable-background:new    ;}
	.st7{fill:url(#SVGID_2_);}
	.st8{fill:url(#SVGID_3_);}
	.st9{fill:url(#SVGID_4_);}
	.st10{fill:url(#SVGID_5_);}
	.st11{fill:url(#SVGID_6_);}
	.st12{fill:url(#SVGID_7_);}
	.st13{fill:url(#SVGID_8_);}
	.st14{fill:url(#SVGID_9_);}
	.st15{fill:url(#SVGID_10_);}
	.st16{fill:url(#SVGID_11_);}
	.st17{fill:url(#SVGID_12_);}
	.st18{fill:url(#SVGID_13_);}
	.st19{fill:url(#SVGID_14_);}
	.st20{fill:url(#SVGID_15_);}
	.st21{fill:url(#SVGID_16_);}
	.st22{fill:url(#SVGID_17_);}
	.st23{fill:url(#SVGID_18_);}
	.st24{fill:url(#SVGID_19_);}
	.st25{fill:url(#SVGID_20_);}
	.st26{fill:url(#SVGID_21_);}
	.st27{fill:url(#SVGID_22_);}
	.st28{fill:url(#SVGID_23_);}
	.st29{fill:url(#SVGID_24_);}
	.st30{fill:url(#SVGID_25_);}
	.st31{fill:url(#SVGID_26_);}
</style>
<rect x="-24" y="-18" class="st0" width="1954" height="1118"/>
<path class="st1" d="M650.9,227.8c-1.5,0-2.9-1.3-2.9-2.9c0,1.5-1.3,2.9-2.9,2.9c1.5,0,2.9,1.3,2.9,2.9
	C648,228.9,649.3,227.8,650.9,227.8z"/>
<path class="st2" d="M1077.4,402c-1.5,0-2.9-1.3-2.9-2.9c0,1.5-1.3,2.9-2.9,2.9c1.5,0,2.9,1.3,2.9,2.9
	C1074.5,403.4,1075.8,402,1077.4,402z"/>
<path class="st2" d="M659,339.6c-1,0-1.7-0.8-1.7-1.7c0,1-0.8,1.7-1.7,1.7c1,0,1.7,0.8,1.7,1.7C657.2,340.4,658,339.6,659,339.6z"/>
<circle class="st2" cx="281.6" cy="176.2" r="0.6"/>
<circle class="st1" cx="377.7" cy="296.3" r="1"/>
<circle class="st1" cx="798.7" cy="706.2" r="0.6"/>
<circle class="st1" cx="408.3" cy="677.3" r="1"/>
<circle class="st1" cx="716.1" cy="158.8" r="0.6"/>
<circle class="st2" cx="959.9" cy="767.5" r="1"/>
<circle class="st2" cx="1187.1" cy="507.9" r="0.6"/>
<circle class="st1" cx="1177.5" cy="630.2" r="1"/>
<circle class="st1" cx="1404.1" cy="473.3" r="0.6"/>
<circle class="st2" cx="1371.2" cy="305.9" r="1"/>
<circle class="st2" cx="1456.1" cy="648.5" r="0.6"/>
<circle class="st2" cx="1073.3" cy="205" r="1"/>
<path class="st1" d="M613.1,737.6c-1.5,0-2.9-1.3-2.9-2.9c0,1.5-1.3,2.9-2.9,2.9c1.5,0,2.9,1.3,2.9,2.9
	C610.4,739,611.6,737.6,613.1,737.6z"/>
<path class="st1" d="M1654,235.5c-1.5,0-2.9-1.3-2.9-2.9c0,1.5-1.3,2.9-2.9,2.9c1.5,0,2.9,1.3,2.9,2.9
	C1651.1,236.8,1652.5,235.5,1654,235.5z"/>
<path class="st2" d="M1404.9,1004.9c-1.5,0-2.9-1.3-2.9-2.9c0,1.5-1.3,2.9-2.9,2.9c1.5,0,2.9,1.3,2.9,2.9
	C1402.2,1006.2,1403.3,1004.9,1404.9,1004.9z"/>
<path class="st2" d="M465.1,193.5c-1.5,0-2.9-1.3-2.9-2.9c0,1.5-1.3,2.9-2.9,2.9c1.5,0,2.9,1.3,2.9,2.9
	C462.2,194.6,463.5,193.5,465.1,193.5z"/>
<path class="st1" d="M277,875.1c-1.5,0-2.9-1.3-2.9-2.9c0,1.5-1.3,2.9-2.9,2.9c1.5,0,2.9,1.3,2.9,2.9
	C274.1,876.2,275.2,875.1,277,875.1z"/>
<circle class="st3" cx="893.9" cy="954" r="0.6"/>
<circle class="st1" cx="501.1" cy="461.5" r="1"/>
<circle class="st2" cx="511.9" cy="985.4" r="0.6"/>
<circle class="st2" cx="1765.7" cy="850.6" r="1"/>
<circle class="st4" cx="1206.9" cy="855.3" r="0.6"/>
<circle class="st1" cx="226.3" cy="399.1" r="1"/>
<circle class="st1" cx="890.6" cy="306.3" r="0.6"/>
<circle class="st2" cx="1322.3" cy="88.2" r="1"/>
<circle class="st2" cx="1377.7" cy="694.7" r="0.6"/>
<circle class="st2" cx="222.5" cy="567.2" r="1"/>
<circle class="st2" cx="1639.6" cy="397" r="0.6"/>
<circle class="st3" cx="1657.9" cy="497.7" r="1"/>
<circle class="st2" cx="1335.9" cy="474.8" r="0.6"/>
<circle class="st2" cx="841.1" cy="106.1" r="1"/>
<circle class="st2" cx="150.7" cy="756.3" r="0.6"/>
<circle class="st2" cx="583.3" cy="554.1" r="1"/>
<circle class="st2" cx="129.5" cy="240.3" r="0.6"/>
<circle class="st2" cx="339.9" cy="1005.6" r="1"/>
<circle class="st4" cx="370.7" cy="56.8" r="0.6"/>
<circle class="st1" cx="1768.6" cy="89.1" r="1"/>
<circle class="st2" cx="443.9" cy="824.3" r="0.6"/>
<circle class="st2" cx="1115.9" cy="1021" r="1"/>
<linearGradient id="SVGID_1_" gradientUnits="userSpaceOnUse" x1="954.4" y1="622.4328" x2="954.4" y2="631.2635" gradientTransform="matrix(1 0 0 0.8693 0 377.1224)">
	<stop  offset="0" style="stop-color:#0A1975;stop-opacity:0"/>
	<stop  offset="0.6075" style="stop-color:#0A1975"/>
</linearGradient>
<rect x="793.9" y="917.7" class="st5" width="321" height="10.8"/>
<g class="st6">
	<path class="st4" d="M751.9,839.4c0-0.5,0.4-0.9,0.9-0.9s0.9,0.4,0.9,0.9v23.8c0,0.5-0.4,0.9-0.9,0.9s-0.9-0.4-0.9-0.9V839.4z"/>
	<path class="st4" d="M764.7,846.3c0-0.5,0.4-0.9,0.9-0.9s0.9,0.4,0.9,0.9v2.7c1.2-2.2,3.3-3.9,6.7-3.9c4.7,0,7.4,3.2,7.4,7.6v10.5
		c0,0.5-0.4,0.9-0.9,0.9s-0.9-0.4-0.9-0.9V853c0-3.8-2.1-6.3-5.9-6.3c-3.6,0-6.4,2.8-6.4,6.6v9.9c0,0.5-0.4,0.9-0.9,0.9
		s-0.9-0.4-0.9-0.9L764.7,846.3L764.7,846.3z"/>
	<path class="st4" d="M791.3,859.2v-12.1h-2c-0.4,0-0.8-0.4-0.8-0.8c0-0.4,0.4-0.8,0.8-0.8h2v-5.1c0-0.5,0.4-0.9,0.9-0.9
		s0.9,0.4,0.9,0.9v5.1h5.8c0.4,0,0.8,0.4,0.8,0.8c0,0.4-0.4,0.8-0.8,0.8h-5.8V859c0,2.6,1.6,3.6,3.7,3.6c1.3,0,1.8-0.4,2.1-0.4
		c0.4,0,0.8,0.4,0.8,0.8c0,0.4-0.2,0.6-0.6,0.8c-0.7,0.3-1.6,0.5-2.6,0.5C793.6,864.3,791.3,862.8,791.3,859.2z"/>
	<path class="st4" d="M815.5,864.4c-4.9,0-9.1-3.9-9.1-9.6v-0.1c0-5.4,3.8-9.6,8.8-9.6c5.2,0,8.5,4.3,8.5,9.6c0,0.4-0.4,0.8-0.9,0.8
		h-14.5c0.3,4.6,3.6,7.3,7.2,7.3c2.6,0,4.5-1.1,6-2.5c0.1-0.1,0.3-0.3,0.6-0.3c0.5,0,0.9,0.4,0.9,0.8c0,0.2-0.1,0.4-0.3,0.6
		C820.9,863.2,818.9,864.4,815.5,864.4z M821.8,853.9c-0.3-3.7-2.4-7.2-6.6-7.2c-3.7,0-6.5,3.1-6.8,7.2H821.8z"/>
	<path class="st4" d="M832.4,846.3c0-0.5,0.4-0.9,0.9-0.9s0.9,0.4,0.9,0.9v4.5c1.6-3.6,4.8-5.5,7.4-5.5c0.5,0,0.9,0.4,0.9,1
		c0,0.5-0.4,0.9-0.9,1c-3.9,0.4-7.4,3.3-7.4,9.2v6.8c0,0.5-0.4,0.9-0.9,0.9s-0.9-0.4-0.9-0.9V846.3z"/>
	<path class="st4" d="M850.4,846.3c0-0.5,0.4-0.9,0.9-0.9s0.9,0.4,0.9,0.9v2.7c1.2-2.2,3.3-3.9,6.7-3.9c4.7,0,7.4,3.2,7.4,7.6v10.5
		c0,0.5-0.4,0.9-0.9,0.9s-0.9-0.4-0.9-0.9V853c0-3.8-2.1-6.3-5.9-6.3c-3.6,0-6.4,2.8-6.4,6.6v9.9c0,0.5-0.4,0.9-0.9,0.9
		s-0.9-0.4-0.9-0.9L850.4,846.3L850.4,846.3z"/>
	<path class="st4" d="M874.5,858.6L874.5,858.6c0-3.9,3.3-6.1,8.1-6.1c2.6,0,4.3,0.3,6.1,0.8v-0.8c0-3.7-2.3-5.7-6.1-5.7
		c-2,0-3.7,0.5-5.3,1.2c-0.1,0.1-0.3,0.1-0.4,0.1c-0.4,0-0.8-0.4-0.8-0.8c0-0.4,0.3-0.7,0.5-0.8c1.9-0.8,3.7-1.4,6.1-1.4
		c2.5,0,4.5,0.7,5.8,2c1.2,1.2,1.9,2.9,1.9,5.2v10.8c0,0.5-0.4,0.9-0.9,0.9s-0.9-0.4-0.9-0.9v-2.3c-1.3,1.8-3.5,3.5-7.1,3.5
		C878.2,864.4,874.5,862.5,874.5,858.6z M888.8,857.1V855c-1.6-0.4-3.6-0.8-6.3-0.8c-3.9,0-6.1,1.7-6.1,4.3v0.1
		c0,2.7,2.5,4.2,5.4,4.2C885.5,862.8,888.8,860.4,888.8,857.1z"/>
	<path class="st4" d="M900.6,838.3c0-0.5,0.4-0.9,0.9-0.9s0.9,0.4,0.9,0.9v24.9c0,0.5-0.4,0.9-0.9,0.9s-0.9-0.4-0.9-0.9V838.3z"/>
	<path class="st4" d="M926,862c-0.1-0.1-0.3-0.4-0.3-0.7c0-0.5,0.4-0.9,0.9-0.9c0.2,0,0.4,0.1,0.6,0.2c1.9,1.4,3.9,2.1,6.2,2.1
		c2.5,0,4.5-1.4,4.5-3.5v-0.1c0-2.2-2.3-3-4.9-3.7c-3-0.9-6.3-1.8-6.3-5.1v-0.1c0-3,2.5-5.1,6.1-5.1c2,0,4.2,0.7,6,1.7
		c0.2,0.1,0.5,0.4,0.5,0.8c0,0.5-0.4,0.9-0.9,0.9c-0.2,0-0.4-0.1-0.5-0.1c-1.6-0.9-3.4-1.5-5.1-1.5c-2.5,0-4.2,1.4-4.2,3.2v0.1
		c0,2.1,2.5,2.8,5.1,3.6c3,0.8,6.1,1.9,6.1,5.2v0.1c0,3.3-2.8,5.4-6.4,5.4C930.6,864.3,927.8,863.4,926,862z"/>
	<path class="st4" d="M956.4,864.4c-4.9,0-9.1-3.9-9.1-9.6v-0.1c0-5.4,3.8-9.6,8.8-9.6c5.2,0,8.5,4.3,8.5,9.6c0,0.4-0.4,0.8-0.9,0.8
		h-14.5c0.3,4.6,3.6,7.3,7.2,7.3c2.6,0,4.5-1.1,6-2.5c0.1-0.1,0.3-0.3,0.6-0.3c0.5,0,0.9,0.4,0.9,0.8c0,0.2-0.1,0.4-0.3,0.6
		C961.8,863.2,959.7,864.4,956.4,864.4z M962.7,853.9c-0.3-3.7-2.4-7.2-6.6-7.2c-3.7,0-6.5,3.1-6.8,7.2H962.7z"/>
	<path class="st4" d="M973.3,846.3c0-0.5,0.4-0.9,0.9-0.9s0.9,0.4,0.9,0.9v4.5c1.6-3.6,4.8-5.5,7.4-5.5c0.5,0,0.9,0.4,0.9,1
		c0,0.5-0.4,0.9-0.9,1c-3.9,0.4-7.4,3.3-7.4,9.2v6.8c0,0.5-0.4,0.9-0.9,0.9s-0.9-0.4-0.9-0.9V846.3z"/>
	<path class="st4" d="M998.4,864.2L998.4,864.2c-0.6,0-0.9-0.3-1.1-0.8l-7.4-16.7c-0.1-0.2-0.1-0.4-0.1-0.5c0-0.5,0.4-0.9,0.9-0.9
		s0.8,0.3,0.9,0.7l6.7,15.9l6.8-16c0.1-0.4,0.4-0.7,0.9-0.7s0.9,0.4,0.9,0.9c0,0.2,0,0.3-0.1,0.5l-7.5,16.7
		C999.2,863.9,998.9,864.2,998.4,864.2z"/>
	<path class="st4" d="M1022.5,864.4c-4.9,0-9.1-3.9-9.1-9.6v-0.1c0-5.4,3.8-9.6,8.8-9.6c5.2,0,8.5,4.3,8.5,9.6
		c0,0.4-0.4,0.8-0.9,0.8h-14.5c0.3,4.6,3.6,7.3,7.2,7.3c2.6,0,4.5-1.1,6-2.5c0.1-0.1,0.3-0.3,0.6-0.3c0.5,0,0.9,0.4,0.9,0.8
		c0,0.2-0.1,0.4-0.3,0.6C1027.9,863.2,1025.8,864.4,1022.5,864.4z M1028.7,853.9c-0.3-3.7-2.4-7.2-6.6-7.2c-3.7,0-6.5,3.1-6.8,7.2
		H1028.7z"/>
	<path class="st4" d="M1039.3,846.3c0-0.5,0.4-0.9,0.9-0.9s0.9,0.4,0.9,0.9v4.5c1.6-3.6,4.8-5.5,7.4-5.5c0.5,0,0.9,0.4,0.9,1
		c0,0.5-0.4,0.9-0.9,1c-3.9,0.4-7.4,3.3-7.4,9.2v6.8c0,0.5-0.4,0.9-0.9,0.9s-0.9-0.4-0.9-0.9V846.3z"/>
	<path class="st4" d="M1079.4,864.4c-4.9,0-9.1-3.9-9.1-9.6v-0.1c0-5.4,3.8-9.6,8.8-9.6c5.2,0,8.5,4.3,8.5,9.6
		c0,0.4-0.4,0.8-0.9,0.8h-14.5c0.3,4.6,3.6,7.3,7.2,7.3c2.6,0,4.5-1.1,6-2.5c0.1-0.1,0.3-0.3,0.6-0.3c0.5,0,0.9,0.4,0.9,0.8
		c0,0.2-0.1,0.4-0.3,0.6C1084.8,863.2,1082.8,864.4,1079.4,864.4z M1085.7,853.9c-0.3-3.7-2.4-7.2-6.6-7.2c-3.7,0-6.5,3.1-6.8,7.2
		H1085.7z"/>
	<path class="st4" d="M1096.3,846.3c0-0.5,0.4-0.9,0.9-0.9s0.9,0.4,0.9,0.9v4.5c1.6-3.6,4.8-5.5,7.4-5.5c0.5,0,0.9,0.4,0.9,1
		c0,0.5-0.4,0.9-0.9,1c-3.9,0.4-7.4,3.3-7.4,9.2v6.8c0,0.5-0.4,0.9-0.9,0.9s-0.9-0.4-0.9-0.9V846.3z"/>
	<path class="st4" d="M1114.2,846.3c0-0.5,0.4-0.9,0.9-0.9s0.9,0.4,0.9,0.9v4.5c1.6-3.6,4.8-5.5,7.4-5.5c0.5,0,0.9,0.4,0.9,1
		c0,0.5-0.4,0.9-0.9,1c-3.9,0.4-7.4,3.3-7.4,9.2v6.8c0,0.5-0.4,0.9-0.9,0.9s-0.9-0.4-0.9-0.9V846.3z"/>
	<path class="st4" d="M1130,854.8L1130,854.8c0-5.3,4-9.7,9.5-9.7s9.5,4.4,9.5,9.6v0.1c0,5.2-4,9.7-9.5,9.7
		C1134,864.4,1130,860,1130,854.8z M1147.1,854.8L1147.1,854.8c0-4.5-3.3-8.1-7.6-8.1c-4.4,0-7.5,3.6-7.5,7.9v0.1c0,4.5,3.3,8,7.6,8
		C1143.9,862.8,1147.1,859.2,1147.1,854.8z"/>
	<path class="st4" d="M1158,846.3c0-0.5,0.4-0.9,0.9-0.9s0.9,0.4,0.9,0.9v4.5c1.6-3.6,4.8-5.5,7.4-5.5c0.5,0,0.9,0.4,0.9,1
		c0,0.5-0.4,0.9-0.9,1c-3.9,0.4-7.4,3.3-7.4,9.2v6.8c0,0.5-0.4,0.9-0.9,0.9s-0.9-0.4-0.9-0.9V846.3z"/>
</g>
<g>
	<path class="st3" d="M966.2,488.7l46.8-6.7c0,0,13.5-2.1,21.8,6.2c8.8,9.3,34.8,35.9,34.8,35.9l25.5-15.1c0,0,3.7-2.6,7.8,2.1
		l-2.6,5.1l-38.4,27.1l-52.4-28l-48.2,23.4l-38.9-18.1l1.6-18.1L966.2,488.7z"/>
	<path class="st3" d="M933,419.8l10.3-5.3l27.7,1.1l17.6-36.8c0,0-1.8-12.3,0-16c0.8-1.1,1.9-3.2,5.1-2.9c2.6,0,7.2,0.6,10.9,0.6
		c4.2,0,9.6,4.3,7.5,10.1c-0.5,1.6-1,7.2-5.1,13c-2.2,3-18.9,47.7-18.9,47.7s3,5.8-5.8,7.2c-8.8,1.6-42.1,5.1-42.1,5.1L933,419.8z"
		/>
	<path class="st4" d="M868,414.4l-12,5.1c0,0-12.5,4.2-7.8,15.5c5.8,13.5,32.2,84.6,32.2,84.6l15.5,8.8l15.1-5.1l-8.8-62.3
		L868,414.4z"/>
	<path class="st4" d="M1101.2,514.7l-1.6-1c-3-1.6-8.3,2.1-10.9,4.2l-20.8,15.1l-34.8-36.4c-6.2-6.2-12.5-7.2-20.8-5.1L938,511.1
		l13,23.4l10.4,4.6l51.9-16.7l55.1,40C1067.9,562.4,1101.2,515.8,1101.2,514.7z"/>
	<path class="st4" d="M995.3,359.9c-1.6,0-2.6,0-3,0l1,19.2l-17.1,42.6c0,0-1,3.7-2.1,3.7c-13.5,0-18.1,0.5-19.2-1.6
		c-4.6-7.8-10.9-9.3-10.9-9.3l-13.1-1.1L941,443c0,0,34.3,4.6,43.1,3s10.4-9.3,10.4-9.3s15.5-48.2,17.6-51.9
		c3.7-5.8,7.2-14.1,7.8-16c2.1-5.8-10.9-18.1-15.1-18.1C1000.9,351.1,997.9,359.9,995.3,359.9z"/>
	<path class="st3" d="M899.7,508.9l17.6,18.7c0,0-7.8,0.5,4.2,6.2c12,5.8,47.3,25,47.3,25l17.1,51.4c0,0,30.1,5.8,35.9,5.8
		c6.6-1.3,19.2-7.2,19.2-7.2s-2.4-6.1-3.7-7.8c-3.2-4.3-29.5-5.3-29.5-5.3L997.2,547c0,0-2.1-11.4-9.3-16.7
		c-13-8.8-58.1-38.9-58.1-38.9L899.7,508.9z"/>
	<path class="st4" d="M1011.8,606.6l-15.5,0.5l-19.7-54c-1-3.7-2.6-5.8-5.8-7.2l-48.9-20.8c0,0-13.3-3.7-19.5-17.8
		c-0.5-1-4.6-1.9-4.6-1.9l10.1,23.9c0,0,4.2,10.9,12.5,14.6c10.4,5.1,35.2,17.1,40,19.2c0.5,0,1,0.5,1,1l19.2,53.5
		c0,0,2.6,8.8,7.8,7.8c5.8-1,33.8-9.3,33.8-9.3S1018.5,606.6,1011.8,606.6z"/>
	<path class="st3" d="M860.4,457.3c0,0-1.8,2.1-7,4.2c-3.7,1.9-6.7,5.4-12.8,8.2c-2.4,1-5,2.1-7.7,3.2c-9.9,4.2-21.8,8.3-35.9,12.5
		c-14.1,4.2-30.1,8.3-48.2,9.9c-63.9,7.4-105.9-8.9-70.2-79.6c1.7-3.4,10.2-18.4,10.2-26.2c0.1-9.8-5.8-26.9-44.2-17.4
		c-11.4,3-22.3,8.3-33.8,11.4c-11.4,3-23.4,4.6-35.2,5.8c-12,0.5-23.9,0.5-35.9-1c-11.4-1.6-23.4-4.6-33.2-11.4
		c-4.6-3.7-8.8-8.3-10.4-14.1c-2.1-5.1-2.6-11.4-0.5-17.1c2.1-5.8,6.7-9.9,12.5-10.9c5.8-1,11.4,0.5,15.5,4.2
		c4.2,3.7,6.2,8.8,7.8,14.1c1,5.1,1,10.4,0,15.5s-3,9.9-6.2,14.1c-3,4.2-6.7,7.2-10.9,10.4c-8.3,5.8-17.1,8.8-26,10.4
		c-17.6,3.7-34.3,3.7-48.9,2.6s-27.1-3.7-37.3-6.2c-9.9-2.6-17.6-5.8-22.9-8.3c-2.6-1-4.2-2.1-5.8-3c-1-0.5-2.1-1-2.1-1
		s0.5,0.5,2.1,1c1,0.5,3,1.6,5.8,3c5.1,2.6,13,5.1,22.9,7.8c9.9,2.6,22.9,4.6,37.3,5.8c14.6,1,31.2,1,48.2-3
		c8.8-2.1,17.6-5.1,25.5-10.4c4.2-2.6,7.2-6.2,10.4-9.9c3-4.2,5.1-8.8,6.2-13.5c1-5.1,1-10.4,0-15.1c-1-5.1-3.7-9.9-7.2-13.5
		c-4.2-3-9.3-5.1-14.6-4.2c-5.1,1-9.9,4.6-11.4,9.9c-2.1,5.1-1.6,10.9,0.5,16c1.6,5.1,5.1,9.9,9.9,13c9.3,6.7,20.8,9.3,32.2,10.9
		c11.4,1.6,23.4,1.6,35.2,0.5c12-1,23.9-2.6,34.8-5.8c11.4-3,22.3-8.3,33.8-11.4c22-4.9,32.7-1.6,37.2,0.6
		c20.5,9.9,9.3,31.5,6.7,36.4c-29.5,60.4-13.8,72.7,5.1,80.9c4.6,2.1,24,6.1,56.4,3.2c17.6-2.1,33.8-6.2,47.3-10.4
		c14.1-4.2,25.5-8.8,35.2-12.5c2.4-1,6.1-3,8.2-3.8c6.6-2.9,10.6-1.9,14.1-3.8c5.1-2.6,5.6-1.1,5.6-1.1L860.4,457.3z"/>
	<path class="st3" d="M915.2,371.3c2.1,2.6,2.1,6.2-0.5,8.8c-2.6,2.1-6.2,2.1-8.3-0.5s-2.1-6.2,0.5-8.8
		C909.6,368.3,913.1,368.7,915.2,371.3z"/>
	<path class="st3" d="M908.5,387.5c1,1.6,1,3,0,4.6c-1,1-3,1-4.2-0.5c-1-1.6-1-3,0-4.6C905.4,385.9,907.5,385.9,908.5,387.5z"/>
	<linearGradient id="SVGID_2_" gradientUnits="userSpaceOnUse" x1="424.8501" y1="385.6" x2="384.7669" y2="385.6">
		<stop  offset="0" style="stop-color:#0A1975;stop-opacity:0"/>
		<stop  offset="1" style="stop-color:#0A1975"/>
	</linearGradient>
	<polygon class="st7" points="417,353.2 416.1,418.6 370.1,417.9 370.9,352.6 	"/>
	
		<linearGradient id="SVGID_3_" gradientUnits="userSpaceOnUse" x1="861.3566" y1="1452.287" x2="815.7366" y2="1434.3597" gradientTransform="matrix(-0.1229 0.3736 -0.3905 -0.129 1179.3905 266.2011)">
		<stop  offset="0" style="stop-color:#0A1975;stop-opacity:0"/>
		<stop  offset="1" style="stop-color:#0A1975"/>
	</linearGradient>
	<polygon class="st8" points="513.3,410.1 496.8,394.4 520.5,384 524.5,385.2 	"/>
	
		<linearGradient id="SVGID_4_" gradientUnits="userSpaceOnUse" x1="941.6792" y1="-273.6485" x2="889.3745" y2="-277.2929" gradientTransform="matrix(0.1295 -0.3714 0.3882 0.1358 516.0613 750.0474)">
		<stop  offset="0" style="stop-color:#0A1975;stop-opacity:0"/>
		<stop  offset="1" style="stop-color:#0A1975"/>
	</linearGradient>
	<polygon class="st9" points="522.9,359.8 542.6,362 525.2,382.7 523.2,382.2 	"/>
	<polygon class="st3" points="920.8,345.2 926.4,328.4 928.8,329.5 	"/>
	<polygon class="st3" points="892.6,339.1 892.2,321.2 894.7,321.3 	"/>
	<polygon class="st3" points="865.2,347.9 856.1,331.9 858.5,330.8 	"/>
	<polygon class="st3" points="847.6,369.4 832.1,365.4 832.9,362.8 	"/>
	
		<linearGradient id="SVGID_5_" gradientUnits="userSpaceOnUse" x1="840.6923" y1="613.8368" x2="851.2684" y2="618.8697" gradientTransform="matrix(1 0 0 -1 0 1080)">
		<stop  offset="0" style="stop-color:#FFFFFF"/>
		<stop  offset="1" style="stop-color:#7990DB"/>
	</linearGradient>
	<path class="st10" d="M837,464.1l3,5.8c6.2-2.7,11.2-5,15.1-6.9c5.1-2.1,7.8-3.7,7.8-3.7l-2.6-6.2c0,0-2.6,1-7.8,3.7
		C848.9,458.8,843.8,461.2,837,464.1z"/>
	<path class="st3" d="M892.5,484.2c6.2,14.1,10.9,25,10.9,25l69.5-18.7c0-0.2-17.1-53.7-19.7-58.3c-6.2-13-15.7-17.8-22.4-18.7
		c0.8-1.3,1.1-2.1,1.8-3c2.6-5.1,3.7-10.9,3.7-16.7c0-22.3-18.1-40.5-40.5-40.5s-40.5,18.1-40.5,40.5c0,5.1,1,9.9,2.6,14.6
		c0,0.3,7.4,17.1,16.5,37.2c-13.8,11.4-34.8,28.5-42,33.8c-11.9,8.3-7.2,21.8-3,26.4c5.8,6.7,28.7,33.3,31.7,35.9l0.5,0.5
		c1,1.1,3.7,5.8,6.7,9.9c2.1,3.7,6.2,5.8,7.2,6.2c6.7,3.7,19.9-4.6,20.8-7.2c1-2.1-4.2-10.4-3.7-13.5c0.5-2.1-1.3-2.1-1.8-3.7
		c-0.6-0.5-2.4-4.5-2.9-4.5l-13.6-5.6c-0.5,0-0.5-0.5-1-1L858.7,501c-1.1-1.1-0.5-2.7,0.5-3.7l47.3-40L892.5,484.2z M890.2,427.9
		c-0.5-0.5-1.4-1.9-1.9-2.4c1-2.1,1.6-4.2,1.6-6.7c0-8.8-6.7-16.7-14.6-16.7c-1.6,0-3,0.5-4.6,1c-1-3-1-6.2-1-9.3
		c0-19.2,14.6-34.3,31.7-34.3c17.6,0,31.7,15.5,31.7,34.3c0,5.1-1.6,11.1-3.7,15.7L890.2,427.9z"/>
	
		<linearGradient id="SVGID_6_" gradientUnits="userSpaceOnUse" x1="872.6638" y1="545.0069" x2="890.994" y2="525.2106" gradientTransform="matrix(1 0 0 -1 0 1080)">
		<stop  offset="0" style="stop-color:#FFFFFF"/>
		<stop  offset="1" style="stop-color:#7990DB"/>
	</linearGradient>
	<path class="st11" d="M899.8,553.4c1-2.6-5-10.1-5.1-14.3c-0.8-7.5-6.9-9.8-6.9-9.8s0.6,10.3,3.8,15.4c1,2.1-1,4.2-6.2,7
		c-4.2,2.6-6.7,3.7-8.8,4.2c-2.6,0.5-6.7-2.6-6.7-2.6l-2.6-2.2c2.6,3.7,5.1,7.7,6.7,8.3C881.1,563.7,899.4,556,899.8,553.4z"/>
	
		<linearGradient id="SVGID_7_" gradientUnits="userSpaceOnUse" x1="917.0936" y1="655.6636" x2="895.0146" y2="645.3604" gradientTransform="matrix(1 0 0 -1 0 1080)">
		<stop  offset="0" style="stop-color:#FFFFFF"/>
		<stop  offset="1" style="stop-color:#7990DB"/>
	</linearGradient>
	<polygon class="st12" points="921.8,418.9 887.3,435.5 893.9,438.4 923.2,424.5 	"/>
	<linearGradient id="SVGID_8_" gradientUnits="userSpaceOnUse" x1="877.6794" y1="472.087" x2="869.2742" y2="458.6386">
		<stop  offset="0" style="stop-color:#FFFFFF"/>
		<stop  offset="1" style="stop-color:#7990DB"/>
	</linearGradient>
	<polygon class="st13" points="864.3,461.5 872.4,455.5 883.4,470.3 875.3,476.3 	"/>
	<g>
		<linearGradient id="SVGID_9_" gradientUnits="userSpaceOnUse" x1="931.6569" y1="455.8306" x2="939.1569" y2="440.0806">
			<stop  offset="0" style="stop-color:#FFFFFF"/>
			<stop  offset="1" style="stop-color:#7990DB"/>
		</linearGradient>
		<path class="st14" d="M938.1,451c-4.8,0-8.7-3.9-8.7-8.7s3.9-8.7,8.7-8.7s8.7,3.9,8.7,8.7S942.9,451,938.1,451z M938.1,436
			c-3.5,0-6.3,2.8-6.3,6.3s2.8,6.3,6.3,6.3s6.3-2.8,6.3-6.3S941.6,436,938.1,436z"/>
	</g>
	
		<linearGradient id="SVGID_10_" gradientUnits="userSpaceOnUse" x1="925.5497" y1="579.722" x2="924.9111" y2="568.5444" gradientTransform="matrix(0.9412 0.3379 0.259 -0.7214 -81.9286 625.2435)">
		<stop  offset="0" style="stop-color:#FFFFFF"/>
		<stop  offset="1" style="stop-color:#7990DB"/>
	</linearGradient>
	<path class="st15" d="M908.3,525.9l59.4,24.7l14.7-16.2l-71.6-26.3c0,0-6.2-1-11.9-8.8L908.3,525.9z"/>
	
		<linearGradient id="SVGID_11_" gradientUnits="userSpaceOnUse" x1="985.5504" y1="640.4498" x2="985.0892" y2="632.3792" gradientTransform="matrix(0.9693 -0.2458 -0.1884 -0.743 149.643 1216.009)">
		<stop  offset="0" style="stop-color:#FFFFFF"/>
		<stop  offset="1" style="stop-color:#7990DB"/>
	</linearGradient>
	<polygon class="st16" points="965,515 1019.5,502 1019.5,487.8 948.4,504.3 	"/>
	
		<linearGradient id="SVGID_12_" gradientUnits="userSpaceOnUse" x1="943.5328" y1="650.1162" x2="947.8566" y2="643.4354" gradientTransform="matrix(0.3488 0.9372 0.7183 -0.2674 251.0903 -199.3547)">
		<stop  offset="0" style="stop-color:#FFFFFF"/>
		<stop  offset="1" style="stop-color:#7990DB"/>
	</linearGradient>
	<polygon class="st17" points="1019.3,502.7 1064.8,540.8 1068.8,529.6 1025.3,488.9 	"/>
	
		<linearGradient id="SVGID_13_" gradientUnits="userSpaceOnUse" x1="1021.7245" y1="588.9532" x2="1020.7377" y2="582.9468" gradientTransform="matrix(1 0 0 -1 0 1080)">
		<stop  offset="0" style="stop-color:#FFFFFF"/>
		<stop  offset="1" style="stop-color:#7990DB"/>
	</linearGradient>
	<path class="st18" d="M1019.5,503.3l-1.1-16c0,0,5.3-1.3,7.2,0.5C1027.8,489.5,1019.5,503.3,1019.5,503.3z"/>
	
		<linearGradient id="SVGID_14_" gradientUnits="userSpaceOnUse" x1="1088.6127" y1="722.9868" x2="1088.0576" y2="713.2756" gradientTransform="matrix(0.2846 -0.7546 -0.55 -0.2074 1070.707 1375.5618)">
		<stop  offset="0" style="stop-color:#FFFFFF"/>
		<stop  offset="1" style="stop-color:#7990DB"/>
	</linearGradient>
	<polygon class="st19" points="981.1,438.4 1004.9,380 993.2,373.9 974.5,420.5 	"/>
	
		<linearGradient id="SVGID_15_" gradientUnits="userSpaceOnUse" x1="1010.5844" y1="476.6735" x2="1008.991" y2="467.7498" gradientTransform="matrix(1 0 0 -1 0 1080)">
		<stop  offset="0" style="stop-color:#FFFFFF"/>
		<stop  offset="1" style="stop-color:#7990DB"/>
	</linearGradient>
	<path class="st20" d="M990,616.7c20,1,27.9,0.6,27.9,0.6l9-2.4c-1.8-12.7-24.5-17-24.5-17S988.3,616.6,990,616.7z"/>
	
		<linearGradient id="SVGID_16_" gradientUnits="userSpaceOnUse" x1="982.5477" y1="552.5005" x2="982.0125" y2="543.1361" gradientTransform="matrix(0.3488 0.9372 0.7183 -0.2674 251.0903 -199.3547)">
		<stop  offset="0" style="stop-color:#FFFFFF"/>
		<stop  offset="1" style="stop-color:#7990DB"/>
	</linearGradient>
	<polygon class="st21" points="966.3,546.7 993.1,612.1 1002.2,599.3 979.6,537.9 	"/>
	
		<linearGradient id="SVGID_17_" gradientUnits="userSpaceOnUse" x1="964.1941" y1="524.8861" x2="963.3632" y2="520.5917" gradientTransform="matrix(1.3865 1.0741 1.162 -1.4999 -968.0107 290.7031)">
		<stop  offset="0" style="stop-color:#FFFFFF"/>
		<stop  offset="1" style="stop-color:#7990DB"/>
	</linearGradient>
	<path class="st22" d="M965.8,549.4l10.3-15.5c0,0,7.7,1.8,8.3,6.4C985.1,544.9,965.8,549.4,965.8,549.4z"/>
	
		<linearGradient id="SVGID_18_" gradientUnits="userSpaceOnUse" x1="1095.4758" y1="669.5624" x2="1097.1957" y2="662.322" gradientTransform="matrix(1.241473e-02 -0.5892 -0.6632 -1.397336e-02 1422.9545 1024.1571)">
		<stop  offset="0" style="stop-color:#FFFFFF"/>
		<stop  offset="1" style="stop-color:#7990DB"/>
	</linearGradient>
	<path class="st23" d="M1001.1,377.2l-6.4-17c0,0-4.2-1.4-4.6,1.8c-0.5,4.2,1.6,16.5,1.6,16.5L1001.1,377.2z"/>
	
		<linearGradient id="SVGID_19_" gradientUnits="userSpaceOnUse" x1="819.3173" y1="588.4014" x2="824.7196" y2="584.0741" gradientTransform="matrix(7.192676e-03 0.8064 0.5878 -5.242274e-03 600.3095 -240.3331)">
		<stop  offset="0" style="stop-color:#FFFFFF"/>
		<stop  offset="1" style="stop-color:#7990DB"/>
	</linearGradient>
	<polygon class="st24" points="940.8,414.2 956.1,433 956.7,415.7 949.7,414.7 	"/>
	
		<linearGradient id="SVGID_20_" gradientUnits="userSpaceOnUse" x1="885.1757" y1="723.6375" x2="889.4207" y2="711.5673" gradientTransform="matrix(0.7674 0.2478 0.1806 -0.5593 156.7284 607.7969)">
		<stop  offset="0" style="stop-color:#FFFFFF"/>
		<stop  offset="1" style="stop-color:#7990DB"/>
	</linearGradient>
	<polygon class="st25" points="956.1,433 980.6,435.7 974.6,420.5 955.9,419.5 	"/>
	<path class="st4" d="M882.5,416c0,3.4-1,6.2-4.6,6.7c-3,0.5-6.2-1.6-7.2-4.6v0.5c1.1,6.2,4.6,7.2,7.8,6.7
		C881.6,424.8,883.7,420.2,882.5,416C882.5,415,882.5,416.5,882.5,416z"/>
	
		<linearGradient id="SVGID_21_" gradientUnits="userSpaceOnUse" x1="879.7256" y1="457.81" x2="883.7759" y2="451.5523" gradientTransform="matrix(-7.774056e-02 0.997 0.7641 5.952065e-02 621.6384 -409.9204)">
		<stop  offset="0" style="stop-color:#FFFFFF"/>
		<stop  offset="1" style="stop-color:#7990DB"/>
	</linearGradient>
	<polygon class="st26" points="888,489.4 901,518.4 909.9,508.1 897.1,476.2 	"/>
	
		<linearGradient id="SVGID_22_" gradientUnits="userSpaceOnUse" x1="818.1123" y1="408.3891" x2="821.6376" y2="402.9419" gradientTransform="matrix(-7.774056e-02 0.997 0.7641 5.952065e-02 621.6384 -409.9204)">
		<stop  offset="0" style="stop-color:#FFFFFF"/>
		<stop  offset="1" style="stop-color:#7990DB"/>
	</linearGradient>
	<polygon class="st27" points="856.3,424 867.3,451.1 876.8,443.5 861.6,417.1 	"/>
	
		<linearGradient id="SVGID_23_" gradientUnits="userSpaceOnUse" x1="1116.2533" y1="491.4529" x2="1111.5461" y2="481.5629" gradientTransform="matrix(0.5197 -0.6891 -0.4836 -0.3647 738.7171 1468.7748)">
		<stop  offset="0" style="stop-color:#FFFFFF"/>
		<stop  offset="1" style="stop-color:#7990DB"/>
	</linearGradient>
	<path class="st28" d="M1066.3,540.3c12.3-4.3,29.2-17,29.2-17l5.6-8.7c-7.5-7.5-34.3,14.1-34.3,14.1S1065.3,541.4,1066.3,540.3z"/>
	
		<linearGradient id="SVGID_24_" gradientUnits="userSpaceOnUse" x1="902.3876" y1="707.7819" x2="902.8228" y2="700.3127" gradientTransform="matrix(0.8529 -0.5221 -0.4002 -0.6538 387.1515 1411.8984)">
		<stop  offset="0" style="stop-color:#FFFFFF"/>
		<stop  offset="1" style="stop-color:#7990DB"/>
	</linearGradient>
	<polygon class="st29" points="859.2,497.4 860.4,496.6 898.7,471.7 906.4,457.3 841.1,499.3 	"/>
	
		<linearGradient id="SVGID_25_" gradientUnits="userSpaceOnUse" x1="959.7186" y1="677.7968" x2="960.8972" y2="670.5338" gradientTransform="matrix(-0.5134 -0.8581 -0.6578 0.3935 1797.0198 1071.0411)">
		<stop  offset="0" style="stop-color:#FFFFFF"/>
		<stop  offset="1" style="stop-color:#7990DB"/>
	</linearGradient>
	<polygon class="st30" points="874.2,524 857.7,499.3 842.8,499.1 872.3,531 	"/>
	<linearGradient id="SVGID_26_" gradientUnits="userSpaceOnUse" x1="847.365" y1="498.0946" x2="854.6568" y2="498.6501">
		<stop  offset="0" style="stop-color:#FFFFFF"/>
		<stop  offset="1" style="stop-color:#7990DB"/>
	</linearGradient>
	<path class="st31" d="M859.8,496.9c0,0-2.1,1.8-1.1,4.2l-15.9-2.4L859.8,496.9z"/>
</g>
</svg>
