<?xml version="1.0" encoding="utf-8"?>
<!-- Generator: Adobe Illustrator 19.2.0, SVG Export Plug-In . SVG Version: 6.00 Build 0)  -->
<svg version="1.1" id="Layer_1" xmlns="http://www.w3.org/2000/svg" xmlns:xlink="http://www.w3.org/1999/xlink" x="0px" y="0px"
	 viewBox="0 0 44 38" style="enable-background:new 0 0 44 38;" xml:space="preserve">
<style type="text/css">
	.st0{fill:#FFFFFF;}
	.st1{fill:#2E2F33;}
	.st2{fill:#FFE17F;}
	.st3{fill:none;stroke:#2E2F33;stroke-linecap:round;stroke-linejoin:round;stroke-miterlimit:10;}
	.st4{fill:#FFFFFF;stroke:#2E2F33;stroke-linecap:round;stroke-linejoin:round;stroke-miterlimit:10;}
	.st5{fill:none;stroke:#231F20;stroke-linecap:round;stroke-linejoin:round;stroke-miterlimit:10;}
</style>
<g>
	<path class="st2" d="M12.7,21.5c-1.6-1.5-2.2-3.8-2.2-5.5c0-2.6,2.8-4.3,5.2-5.8c2.1-1.3,3.8-2.4,4-3.9c0-0.5-0.1-1-0.4-1.5
		C23.2,5.8,33.4,9,33.5,16c0,1.9-0.9,3.7-2.7,5.5H12.7z"/>
	<path class="st1" d="M20.1,5.5C24.4,6.7,32.9,9.8,33,16c0,1.7-0.8,3.3-2.4,5h-9.9h-1.1h-6.7c-1.4-1.4-1.9-3.4-1.9-5
		c0-2.3,2.5-3.9,5-5.4c2.2-1.3,4.1-2.5,4.2-4.3C20.2,6.1,20.2,5.8,20.1,5.5 M18,4c5.2,4.8-8,5.8-8,12c0,1.9,0.7,4.5,2.5,6h7.1h1.1
		H31c2.2-2.2,3-4.2,3-6C33.9,6.9,18,4,18,4L18,4z"/>
</g>
<path class="st3" d="M11,19c15.2-7.8,8.7-13,8.7-13"/>
<path class="st3" d="M17,21c13.3-6.8,7-14,7-14"/>
<path class="st3" d="M25,21c7.7-5.1,3-12,3-12"/>
<g>
	<path class="st1" d="M30.8,22l-1.9,12H15.1l-1.9-12H30.8 M32,21L32,21L32,21z M32,21H12l2.2,14h15.6L32,21L32,21z"/>
</g>
</svg>
